<svg width="79" height="188" viewBox="0 0 79 188" fill="none" xmlns="http://www.w3.org/2000/svg">
<path d="M12.6 55V40.8C12.6 35.3333 13.4667 30.2667 15.2 25.6C17.0667 20.9333 20.2 16.3333 24.6 11.8L32.4 17.6C29.4667 20.8 27.3333 23.8 26 26.6C24.6667 29.2667 23.8667 31.9333 23.6 34.6H33V55H12.6ZM45.8 55V40.8C45.8 35.3333 46.6667 30.2667 48.4 25.6C50.2667 20.9333 53.4 16.3333 57.8 11.8L65.6 17.6C62.6667 20.8 60.5333 23.8 59.2 26.6C57.8667 29.2667 57.0667 31.9333 56.8 34.6H66.2V55H45.8Z" fill="#62E0D9"/>
</svg>
